<svg data-name="구성 요소 2 – 1" xmlns="http://www.w3.org/2000/svg" width="100" height="100">
    <path d="M68.023 53.2c-.043-7.9 3.53-13.862 10.764-18.252-4.047-5.789-10.161-8.976-18.23-9.6-7.641-.6-15.993 4.454-19.051 4.454-3.23 0-10.632-4.24-16.446-4.24C13.047 25.755.281 35.141.281 54.232a53.668 53.668 0 0 0 3.1 17.477c2.755 7.9 12.7 27.274 23.076 26.949C31.88 98.53 35.71 94.8 42.773 94.8c6.845 0 10.4 3.854 16.446 3.854C69.679 98.508 78.676 80.9 81.3 72.979 67.27 66.37 68.023 53.607 68.023 53.2zM55.838 17.857c5.878-6.974 5.339-13.323 5.168-15.607-5.189.3-11.192 3.53-14.615 7.513a20.592 20.592 0 0 0-5.51 15.475c5.618.432 10.742-2.455 14.961-7.384z" transform="translate(8.719 -.249)" style="fill:#fff"/>
</svg>
