<svg xmlns="http://www.w3.org/2000/svg" width="100" height="100">
    <defs>
        <style>
            .cls-2{stroke:#000;stroke-width:.5px;fill-rule:evenodd}
        </style>
    </defs>
    <g id="그룹_5751" data-name="그룹 5751" transform="translate(10088 11511)">
        <path id="사각형_3825" data-name="사각형 3825" transform="translate(-10088 -11511)" style="fill:none" d="M0 0h100v100H0z"/>
        <g id="download" transform="translate(-10086.387 -11503.222)">
            <path id="패스_3434" data-name="패스 3434" class="cls-2" d="M6.071 18a3.071 3.071 0 0 1 3.071 3.071v21.5a6.142 6.142 0 0 0 6.142 6.142H81.71a6.142 6.142 0 0 0 6.142-6.142v-21.5a3.071 3.071 0 0 1 6.142 0v21.5A12.285 12.285 0 0 1 81.71 54.855H15.285A12.285 12.285 0 0 1 3 42.57v-21.5A3.071 3.071 0 0 1 6.071 18z" transform="translate(0 27.247)"/>
            <path id="패스_3435" data-name="패스 3435" class="cls-2" d="M11.82 17.445a3.071 3.071 0 0 1 4.343 0l14.084 14.084 14.084-14.084a3.071 3.071 0 0 1 4.343 4.343l-16.253 16.26a3.071 3.071 0 0 1-4.349 0L11.82 21.788a3.071 3.071 0 0 1 0-4.343z" transform="translate(18.25 24.731)"/>
            <path id="패스_3436" data-name="패스 3436" class="cls-2" d="M19.946 2.25a3.071 3.071 0 0 1 3.071 3.071v49.14a3.071 3.071 0 0 1-6.142 0V5.321a3.071 3.071 0 0 1 3.071-3.071z" transform="translate(28.551)"/>
        </g>
    </g>
</svg>
