<svg xmlns="http://www.w3.org/2000/svg" width="100" height="100">
    <g data-name="그룹 5750">
        <path data-name="사각형 3825" style="fill:none" d="M0 0h100v100H0z"/>
        <path d="M86.617 16.99a23.842 23.842 0 0 0-33.731.013l-2.89 2.925-2.87-2.916-.015-.022a23.842 23.842 0 0 0-33.718 0l-1.287 1.291a23.842 23.842 0 0 0 0 33.718l33.969 33.968 3.836 4.023.093-.093.1.1 3.595-3.791 34.205-34.21a23.868 23.868 0 0 0 0-33.718zM83.69 47.781 50.007 81.464 16.326 47.781a17.881 17.881 0 0 1 0-25.288l1.287-1.287a17.881 17.881 0 0 1 25.276-.016l7.094 7.224 7.129-7.216a17.881 17.881 0 0 1 25.288 0l1.287 1.292a17.9 17.9 0 0 1 0 25.288z"/>
    </g>
</svg>
