<svg xmlns="http://www.w3.org/2000/svg" width="103.031" height="95.494">
    <defs>
        <style>
            .cls-2{fill:#ffdf00}
        </style>
    </defs>
    <g id="그룹_5617" data-name="그룹 5617" transform="translate(-708.331 -3179.949)">
        <path id="패스_193" data-name="패스 193" d="M161.5 158.027c-28.448 0-51.513 18.279-51.513 40.837 0 14.508 9.557 27.214 23.906 34.482l-4.858 18.191a1.513 1.513 0 0 0 .368 1.551 1.465 1.465 0 0 0 1.053.433 1.5 1.5 0 0 0 .9-.345l20.877-14.148a64.76 64.76 0 0 0 9.272.681c28.446 0 51.518-18.281 51.518-40.844s-23.072-40.837-51.518-40.837" transform="translate(598.344 3021.922)" style="fill:#2b1718"/>
        <path id="패스_194" data-name="패스 194" class="cls-2" d="M122.6 175.518h-5.56a3.647 3.647 0 0 1-1.974-.53 2.168 2.168 0 0 1-1.016-1.488 5.992 5.992 0 0 1-.084-.573 2.232 2.232 0 0 1 .874-1.888 3.443 3.443 0 0 1 2.185-.687h17a3.615 3.615 0 0 1 1.97.526 2.2 2.2 0 0 1 1.033 1.493 2.884 2.884 0 0 1 .035.556 2.328 2.328 0 0 1-.848 1.921 3.423 3.423 0 0 1-2.175.671h-5.56v19.16a3.089 3.089 0 0 1-.808 2.217 2.816 2.816 0 0 1-2.154.837 3 3 0 0 1-1.881-.6 2.788 2.788 0 0 1-.991-1.666 3.22 3.22 0 0 1-.051-.785z" transform="translate(603.864 3037.058)"/>
        <path id="패스_195" data-name="패스 195" class="cls-2" d="M129.133 172.016a2.632 2.632 0 0 1 1.072-1.437 3.393 3.393 0 0 1 1.8-.432h1.414a3.693 3.693 0 0 1 1.921.467 3.078 3.078 0 0 1 1.217 1.776l7.1 20.588a11.854 11.854 0 0 1 .481 1.64 6.935 6.935 0 0 1 .105.706 2.586 2.586 0 0 1-.832 1.9 2.662 2.662 0 0 1-1.956.78 2.511 2.511 0 0 1-2.64-1.678l-1.521-4.482h-9.472l-1.528 4.482a2.455 2.455 0 0 1-2.633 1.678 2.734 2.734 0 0 1-1.738-.535 2.462 2.462 0 0 1-.9-1.521 2.885 2.885 0 0 1-.054-.626 3.429 3.429 0 0 1 .159-1.082c.11-.421.248-.848.4-1.264zm3.559 4.776h-.075l-3.468 10.8h6.886z" transform="translate(613.348 3036.772)"/>
        <path id="패스_196" data-name="패스 196" class="cls-2" d="M131.325 173.2a3.085 3.085 0 0 1 .806-2.215 2.836 2.836 0 0 1 2.157-.839 2.915 2.915 0 0 1 1.886.612 2.949 2.949 0 0 1 1.033 2.442v19.172h9.83a3.559 3.559 0 0 1 1.988.521 2.252 2.252 0 0 1 1 1.5 3.64 3.64 0 0 1 .084.561 2.274 2.274 0 0 1-.869 1.9 3.491 3.491 0 0 1-2.187.673h-12.281a3.845 3.845 0 0 1-2.213-.566 2.669 2.669 0 0 1-1.115-1.815 8.639 8.639 0 0 1-.129-1.2z" transform="translate(627.343 3036.761)"/>
        <path id="패스_197" data-name="패스 197" class="cls-2" d="M139.61 173.2a3.111 3.111 0 0 1 .8-2.215 2.843 2.843 0 0 1 2.157-.839 2.9 2.9 0 0 1 1.879.612 2.742 2.742 0 0 1 .991 1.666 2.972 2.972 0 0 1 .058.776l.016 8.912 9.241-10.624a6.465 6.465 0 0 1 1.119-1.012 2.179 2.179 0 0 1 1.224-.33 3.02 3.02 0 0 1 1.762.547 2.2 2.2 0 0 1 .979 1.437c0 .019.019.105.042.227a1.038 1.038 0 0 0 .014.248 2.283 2.283 0 0 1-.271 1.117 5.421 5.421 0 0 1-.7.986l-6.047 6.6 7.152 11.328.215.341a6.09 6.09 0 0 1 .846 1.708c.009.023.019.093.044.182a1.209 1.209 0 0 0 0 .192 2.677 2.677 0 0 1-.883 2.259 3.411 3.411 0 0 1-2.14.687 2.984 2.984 0 0 1-1.467-.318 3.913 3.913 0 0 1-1.154-1.283l-6.781-10.912-3.232 3.367.035 6.091a3.129 3.129 0 0 1-.808 2.217 2.842 2.842 0 0 1-2.157.837 3.012 3.012 0 0 1-1.888-.6 2.77 2.77 0 0 1-.986-1.666 3.606 3.606 0 0 1-.054-.785z" transform="translate(638.583 3036.772)"/>
    </g>
</svg>
