<svg id="그룹_5676" data-name="그룹 5676" xmlns="http://www.w3.org/2000/svg" width="200" height="200">
    <defs>
        <style>
            .cls-2{fill:#bbb}
        </style>
    </defs>
    <path id="사각형_3768" data-name="사각형 3768" style="fill:none" d="M0 0h200v200H0z"/>
    <g id="그룹_5675" data-name="그룹 5675" transform="translate(25.021 25.021)">
        <path id="패스_3393" data-name="패스 3393" class="cls-2" d="M535.974 308.748a3.648 3.648 0 0 1 3.644 3.644v80.445L523.179 376.4a9.844 9.844 0 0 0-13.906 0l-8.137 8.138 4.376 4.376 34.106 34.106 6.189 6.189V312.392a9.843 9.843 0 0 0-9.833-9.833H419.159l6.189 6.189z" transform="translate(-402.229 -297.299)"/>
        <path id="패스_3394" data-name="패스 3394" class="cls-2" d="m383.815 500.534-63.777-63.777a9.854 9.854 0 0 0-9.9 2.432l-25.1 25.1v-62.52l-6.175-6.175c-.009.173-.013.347-.013.522v121.019a9.843 9.843 0 0 0 9.833 9.833h121.03c.175 0 .349 0 .522-.013l-6.175-6.175z" transform="translate(-275.968 -381.018)"/>
        <path id="패스_3395" data-name="패스 3395" class="cls-2" d="M1012.741 668.413a16.606 16.606 0 1 0 16.606 16.606 16.625 16.625 0 0 0-16.606-16.606z" transform="translate(-921.458 -626.536)"/>
        <path id="패스_3396" data-name="패스 3396" class="cls-2" d="M1320.929 1422.083a2.82 2.82 0 0 0-.184-.25 3.059 3.059 0 0 1 .184.25z" transform="translate(-1213.579 -1304.551)"/>
        <path id="패스_3397" data-name="패스 3397" class="cls-2" d="m399.221 394.846-6.022-6.022-5.81-5.81-37.753-37.753-4.377-4.377-79.435-79.434-5.81-5.81-4.732-4.732a3.094 3.094 0 1 0-4.375 4.375l3.934 3.934 4.5 4.5 81.539 81.539 4.377 4.377 39.857 39.857 4.5 4.5 5.223 5.223a3.094 3.094 0 0 0 4.375-4.375z" transform="translate(-250 -250.001)"/>
    </g>
</svg>
