<svg xmlns="http://www.w3.org/2000/svg" width="88" height="88">
    <g data-name="그룹 2633">
        <path data-name="사각형 42" style="fill:none" d="M0 0h88v88H0z"/>
        <g data-name="그룹 2631" transform="translate(5.194 5.194)">
            <circle data-name="타원 2" cx="18" cy="18" r="18" transform="translate(20.805 20.806)" style="stroke-miterlimit:10;stroke:#000;stroke-width:6px;fill:none"/>
            <path data-name="패스 1" d="M81.914 27.61A38.634 38.634 0 0 0 74 19.7l-7.446 3.539a31.577 31.577 0 0 0-7.391-3.058L56.4 12.4a39.033 39.033 0 0 0-11.187 0l-2.766 7.78a31.536 31.536 0 0 0-7.391 3.057L27.61 19.7a38.634 38.634 0 0 0-7.91 7.91l3.539 7.446a31.536 31.536 0 0 0-3.057 7.391L12.4 45.213a39.033 39.033 0 0 0 0 11.187l7.776 2.766a31.577 31.577 0 0 0 3.058 7.391L19.7 74a38.634 38.634 0 0 0 7.912 7.912l7.446-3.539a31.576 31.576 0 0 0 7.391 3.058l2.766 7.776a39.033 39.033 0 0 0 11.187 0l2.766-7.776a31.576 31.576 0 0 0 7.391-3.058L74 81.914A38.634 38.634 0 0 0 81.914 74l-3.539-7.446a31.576 31.576 0 0 0 3.058-7.391l7.776-2.763a39.033 39.033 0 0 0 0-11.187l-7.776-2.766a31.576 31.576 0 0 0-3.058-7.391z" transform="translate(-12 -12)" style="stroke-linejoin:round;stroke:#000;stroke-width:6px;fill:none"/>
        </g>
    </g>
</svg>
