<svg xmlns="http://www.w3.org/2000/svg" width="100" height="100">
    <g data-name="그룹 5752">
        <path data-name="사각형 3825" style="fill:none" d="M0 0h100v100H0z"/>
        <path d="M74.99 62.595a15.693 15.693 0 0 0-12.212 5.932l-22.94-14.341a14 14 0 0 0 0-8.286l22.94-14.345a15.693 15.693 0 1 0-3.485-9.762 15.035 15.035 0 0 0 .628 4.143L36.978 40.279a15.693 15.693 0 1 0 0 19.521l22.947 14.343a15.035 15.035 0 0 0-.628 4.146A15.693 15.693 0 1 0 74.99 62.595zm0-50.218a9.416 9.416 0 1 1-9.412 9.416 9.416 9.416 0 0 1 9.416-9.416zm-50.218 47.08a9.416 9.416 0 1 1 9.416-9.416 9.416 9.416 0 0 1-9.416 9.416zM74.99 87.704a9.416 9.416 0 1 1 9.416-9.418 9.416 9.416 0 0 1-9.416 9.416z"/>
    </g>
</svg>
